<svg width="292" height="237" viewBox="0 0 292 237" fill="none" xmlns="http://www.w3.org/2000/svg">
<path d="M146 235C143.5 211.273 133.067 175.011 135.146 151.335C137.554 123.919 139.055 93.5936 152.588 68.8972C156.855 61.1111 163.761 52.5652 171.477 47.9053C173.285 46.8135 176.979 44.7362 179.135 46.1205C188.986 52.4463 192.073 60.9278 193.514 72.0843C196.99 98.9892 181.928 125.416 160.927 141.732C133.485 163.051 95.1293 175.157 60.3565 171.817C41.7893 170.034 31.292 146.752 37.6389 130.343C46.9746 106.208 70.7285 93.6236 94.2202 86.0223C113.101 79.913 134.387 77.5976 154.12 77.0986C170.3 76.6894 185.932 75.8361 202.065 77.906C208.252 78.6997 216.782 78.6859 222.443 81.7304C225.875 83.5764 229.373 85.779 232.61 87.9345C240.333 93.0769 246.701 98.6685 250.776 106.972C252.887 111.274 254.009 113.494 254.009 118.445C254.009 126.681 249.755 132.614 242.693 136.803C234.013 141.95 226.447 145.549 216.061 146.746C190.864 149.65 164.257 146.577 139.443 142.029C125.999 139.565 112.994 134.383 99.9634 130.386C87.1639 126.46 74.3887 121.988 62.1858 116.448C50.6676 111.218 41.0811 103.218 31.1724 95.4984C24.0746 89.9685 15.849 84.4582 10.4969 77.0561C5.5072 70.1552 1.23445 61.5128 2.11603 52.7071C2.84841 45.3915 13.0389 40.2305 19.0904 38.5566C29.6391 35.6387 40.6944 35.4236 51.5077 36.6019C74.8154 39.1416 98.2905 44.2605 120.341 52.1546C145.966 61.3282 172.08 71.1937 194.79 86.4897C205.254 93.5371 215.066 101.404 224.57 109.691C230.8 115.124 235.603 122.106 240.949 128.389C246.297 134.673 253.657 144.052 255.924 152.1C258.123 159.913 258.604 166.59 258.604 174.75C258.604 195.619 227.246 195.703 212.786 192.639C197.891 189.484 183.067 184.792 168.754 179.636C159.582 176.332 151.316 172.597 143.357 166.973C129.986 157.527 118.813 140.03 112.301 125.287C109.058 117.946 105.437 110.768 102.856 103.147C99.9576 94.5871 99.9512 85.3157 100.091 76.3762C100.446 53.7012 116.525 34.0853 137.613 26.9983C149.288 23.0749 160.403 22.7325 172.583 22.8339C183.991 22.9288 194.085 30.9304 200.704 39.6189C209.964 51.7758 214.888 64.5774 217.295 79.6057C220.083 97.0084 221.027 115.918 211.807 131.746C208.218 137.908 202.486 142.525 197.641 147.638C190.839 154.817 183.694 161.09 175.476 166.633C158.246 178.256 140.173 187.65 118.725 188.05C113.13 188.155 106.342 189.043 100.857 187.71C96.3111 186.606 92.4014 183.74 88.6046 181.166C83.1002 177.435 78.0583 173.375 75.5866 167.058C64.3348 138.299 78.8861 111.115 100.602 92.0139C135.539 61.2831 179.447 42.1093 224.825 32.7774C234.748 30.7368 248.055 29.0813 257.413 33.7548C263.588 36.8392 269.799 39.685 274.302 45.0157C277.986 49.3765 280.992 53.8416 283.874 58.7837C289.792 68.9334 290 80.8278 290 92.2689C290 103.648 282.756 112.759 275.791 121.165C268.01 130.556 256.151 133.821 244.395 135.443C232.573 137.073 220.932 138.332 208.999 138.332C202.351 138.332 194.951 139.227 188.622 136.76C181.412 133.95 174.13 130.264 167.606 126.137C160.129 121.407 155.25 114.936 149.866 108.034C135.556 89.6909 121.846 70.2627 125.531 47.4259C129.5 22.8339 146 22.9148 146 0.5" stroke="#A0A3BD" stroke-width="4" stroke-linecap="round" stroke-linejoin="round" stroke-dasharray="10 10"/>
</svg>
